<svg width="24" height="25" viewBox="0 0 24 25" fill="none" xmlns="http://www.w3.org/2000/svg">
<path d="M9.05829 12.0012C9.05829 12.6097 9.52114 13.1085 10.1074 13.1085C10.6834 13.1085 11.1566 12.6097 11.1566 12.0012C11.1566 11.3926 10.6937 10.8938 10.1074 10.8938C9.52114 10.8938 9.05829 11.3926 9.05829 12.0012ZM13.8617 10.8938C14.448 10.8938 14.9109 11.3926 14.9109 12.0012C14.9109 12.6097 14.4377 13.1085 13.8617 13.1085C13.2754 13.1085 12.8126 12.6097 12.8126 12.0012C12.8023 11.3926 13.2754 10.8938 13.8617 10.8938ZM3 4.5789V22.4762C5.59128 20.2551 4.76255 20.9903 7.77257 18.2762L7.22743 20.1218H18.8914C20.0537 20.1218 21 19.204 21 18.0667V4.5789C21 3.44161 20.0537 2.5238 18.8914 2.5238H5.10857C3.94629 2.5238 3 3.44161 3 4.5789ZM5.93143 14.0363C5.93143 10.824 7.41257 8.2202 7.41257 8.2202C8.89371 7.14277 10.3029 7.1727 10.3029 7.1727L10.4469 7.33232C8.69829 7.85108 7.88571 8.59929 7.88571 8.59929C10.329 7.30048 13.1991 7.30025 15.5691 8.30998C15.9497 8.47958 16.176 8.59929 16.176 8.59929C16.176 8.59929 15.3223 7.81118 13.4709 7.29241L13.5737 7.1727C13.5737 7.1727 14.9829 7.14277 16.464 8.2202C16.464 8.2202 17.9451 10.824 17.9451 14.0363C17.9451 14.0363 17.0811 15.4829 14.808 15.5527C14.808 15.5527 14.4274 15.1038 14.1189 14.7247C15.4251 14.3456 15.9189 13.5475 15.9189 13.5475C15.7675 13.6502 15.518 13.7834 15.4971 13.7969C13.761 14.7399 11.2949 15.0488 9.07886 14.146C8.71886 14.0164 8.31771 13.8268 7.896 13.5575C7.896 13.5575 8.41028 14.3755 9.75771 14.7446C9.44914 15.1237 9.07886 15.5527 9.07886 15.5527C6.80571 15.4829 5.93143 14.0363 5.93143 14.0363Z" fill="white"/>
</svg>
