<svg width="24" height="25" viewBox="0 0 24 25" fill="none" xmlns="http://www.w3.org/2000/svg">
<path d="M19.9441 8.5576C19.9568 8.73483 19.9568 8.9121 19.9568 9.08934C19.9568 14.4952 15.8325 20.724 8.29441 20.724C5.97207 20.724 3.81473 20.053 2 18.8883C2.32996 18.9262 2.64719 18.9389 2.98984 18.9389C4.90605 18.9389 6.67004 18.2933 8.07867 17.1918C6.27664 17.1538 4.76648 15.9764 4.24617 14.3559C4.5 14.3939 4.75379 14.4192 5.02031 14.4192C5.38832 14.4192 5.75637 14.3686 6.09898 14.28C4.22082 13.9002 2.81215 12.2544 2.81215 10.2667V10.2161C3.35781 10.5199 3.99238 10.7098 4.66492 10.7351C3.56086 10.0008 2.83754 8.7475 2.83754 7.32956C2.83754 6.56996 3.04055 5.87366 3.3959 5.26597C5.41367 7.74735 8.44668 9.36781 11.8477 9.54508C11.7842 9.24124 11.7461 8.92477 11.7461 8.60826C11.7461 6.35474 13.5736 4.51904 15.8451 4.51904C17.0253 4.51904 18.0913 5.01279 18.84 5.81037C19.7664 5.63314 20.6547 5.2913 21.4416 4.82289C21.137 5.77242 20.4898 6.57 19.6395 7.07637C20.4644 6.98779 21.2639 6.75986 21.9999 6.44339C21.4416 7.25361 20.7436 7.9752 19.9441 8.5576Z" fill="white"/>
</svg>
